# xmcd CD database file
#
# Track frame offsets:
#	150
#	19167
#	39930
#	54937
#	70387
#	86197
#	101467
#	123227
#	141205
#	157427
#
# Disc length: 2239 seconds
#
# Revision: 0
# Processed by: cddbd v1.5.1PL0 Copyright (c) Steve Scherf et al.
# Submitted via: CDex 1.51
#
DISCID=8708bd0a
DTITLE=Various Artist - BOSSA VOYAGE vol.4
DYEAR=1900
DGENRE=Jazz
TTITLE0=Life/Misique presse et Rina
TTITLE1=Take a bow/Sonia
TTITLE2=Rosa Morena/Asa Blanca
TTITLE3=Mais que nada/air:man featuring aya
TTITLE4=Tanto amor/Sophie
TTITLE5=Alfie/Etienne
TTITLE6=As/Musique presse et Rina
TTITLE7=This masquerade/air:man featuring aya
TTITLE8=As time goes by/Etienne
TTITLE9=Vagamente/Asa Blanca
EXTD=
EXTT0=
EXTT1=
EXTT2=
EXTT3=
EXTT4=
EXTT5=
EXTT6=
EXTT7=
EXTT8=
EXTT9=
PLAYORDER=
